<svg width="492" height="492" viewBox="0 0 492 492" fill="none" xmlns="http://www.w3.org/2000/svg">
<mask id="mask0" mask-type="alpha" maskUnits="userSpaceOnUse" x="0" y="0" width="492" height="492">
<rect width="492" height="492" fill="#C4C4C4"/>
</mask>
<g mask="url(#mask0)">
<path d="M607.377 359.123H744.945C746.854 359.098 748.677 358.328 750.027 356.979C751.377 355.629 752.147 353.805 752.172 351.897C752.147 349.988 751.377 348.164 750.027 346.815C748.677 345.465 746.854 344.695 744.945 344.67H615.204V260.09H729.892C731.8 260.065 733.624 259.295 734.974 257.945C736.323 256.596 737.093 254.772 737.118 252.863C737.092 250.955 736.321 249.133 734.972 247.785C733.622 246.436 731.799 245.667 729.892 245.642H615.204V162.863H743.437C745.345 162.838 747.169 162.069 748.518 160.719C749.868 159.369 750.638 157.546 750.663 155.637C750.638 153.728 749.868 151.905 748.518 150.555C747.169 149.205 745.345 148.436 743.437 148.41H607.377C603.163 148.41 599.55 152.024 599.55 156.237V351.301C599.55 355.515 603.163 359.128 607.377 359.128V359.123ZM847.68 351.296C847.68 355.51 851.293 359.123 855.502 359.123H981.029C982.938 359.098 984.761 358.328 986.111 356.979C987.461 355.629 988.231 353.805 988.256 351.897C988.231 349.988 987.461 348.164 986.111 346.815C984.761 345.465 982.938 344.695 981.029 344.67H863.329V155.036C863.329 150.822 859.716 147.209 855.502 147.209C851.288 147.209 847.68 150.822 847.68 155.036V351.291V351.296ZM1088.28 359.123H1225.84C1227.75 359.098 1229.58 358.328 1230.93 356.979C1232.28 355.629 1233.04 353.805 1233.07 351.897C1233.04 349.988 1232.28 348.164 1230.93 346.815C1229.58 345.465 1227.75 344.695 1225.84 344.67H1096.11V260.09H1210.79C1212.7 260.065 1214.53 259.295 1215.88 257.945C1217.23 256.596 1218 254.772 1218.02 252.863C1217.99 250.955 1217.22 249.133 1215.88 247.785C1214.53 246.436 1212.7 245.667 1210.79 245.642H1096.11V162.863H1224.34C1226.25 162.838 1228.07 162.069 1229.42 160.719C1230.77 159.369 1231.54 157.546 1231.57 155.637C1231.54 153.728 1230.77 151.905 1229.42 150.555C1228.07 149.205 1226.25 148.436 1224.34 148.41H1088.28C1084.07 148.41 1080.45 152.024 1080.45 156.237V351.301C1080.45 355.515 1084.07 359.128 1088.28 359.128V359.123ZM1424 362.736C1459.22 362.736 1482.4 349.792 1503.77 329.924C1504.98 328.718 1506.18 326.911 1506.18 324.504C1506.18 320.593 1502.57 316.98 1498.66 316.98C1496.25 316.98 1494.44 318.186 1493.24 319.387C1473.37 338.352 1453.2 348.586 1424.6 348.586C1374.34 348.586 1335.5 307.048 1335.5 253.762V253.161C1335.5 200.183 1373.73 158.942 1424.31 158.942C1453.8 158.942 1473.97 170.383 1491.43 186.335C1492.64 187.541 1494.74 188.444 1496.85 188.444C1501.06 188.444 1504.98 184.831 1504.98 180.617C1504.98 177.907 1503.47 175.803 1501.97 174.294C1481.5 156.838 1459.53 144.797 1424.6 144.797C1363.8 144.797 1319.25 194.162 1319.25 253.767V254.367C1319.25 314.87 1363.8 362.736 1424 362.736V362.736ZM1655.58 352.502C1655.58 356.716 1659.19 360.324 1663.4 360.324C1667.62 360.324 1671.22 356.711 1671.22 352.502V162.854H1738.66C1740.56 162.828 1742.39 162.06 1743.74 160.711C1745.09 159.362 1745.86 157.54 1745.88 155.632C1745.86 153.723 1745.09 151.9 1743.74 150.55C1742.39 149.2 1740.57 148.431 1738.66 148.405H1588.14C1586.23 148.431 1584.41 149.2 1583.06 150.55C1581.71 151.9 1580.94 153.723 1580.92 155.632C1580.94 157.541 1581.71 159.364 1583.06 160.714C1584.41 162.064 1586.23 162.833 1588.14 162.859H1655.58V352.502ZM1838.68 352.502C1838.68 356.716 1842.29 360.324 1846.51 360.324C1850.72 360.324 1854.33 356.711 1854.33 352.502V271.828H1923.27L1987.99 356.11C1989.79 358.523 1991.9 360.324 1994.91 360.324C1999.12 360.324 2003.04 356.413 2003.04 352.199C2003.04 350.393 2002.13 348.586 2000.63 346.779L1940.73 269.118C1976.24 264.299 2002.44 244.133 2002.44 208.913V208.313C2002.44 193.259 1996.42 179.113 1986.48 169.177C1973.84 156.535 1953.07 148.41 1927.18 148.41H1846.51C1842.29 148.41 1838.68 152.024 1838.68 156.233V352.502V352.502ZM1854.33 257.678V162.854H1926.28C1964.51 162.854 1986.78 180.617 1986.78 208.913V209.514C1986.78 239.919 1960.59 257.678 1925.38 257.678H1854.33H1854.33ZM2199.09 362.736C2262.9 362.736 2305.35 311.262 2305.35 253.767V253.161C2305.35 195.666 2263.5 144.797 2199.69 144.797C2135.87 144.797 2093.43 196.272 2093.43 253.767V254.367C2093.43 311.862 2135.27 362.736 2199.09 362.736H2199.09ZM2199.69 348.586C2147.61 348.586 2109.69 305.842 2109.69 253.762V253.161C2109.69 201.086 2147.01 158.942 2199.09 158.942C2251.17 158.942 2289.09 201.687 2289.09 253.767V254.367C2289.09 306.442 2251.77 348.586 2199.69 348.586H2199.69ZM2405.07 352.8C2405.07 357.014 2408.38 360.324 2412.6 360.324C2416.81 360.324 2420.12 357.014 2420.12 352.805V171.281L2564.91 354.904C2567.32 357.912 2569.73 360.022 2572.74 360.022H2573.94C2577.56 360.022 2580.27 357.009 2580.27 353.401V154.729C2580.27 150.515 2576.95 147.204 2572.74 147.204C2568.52 147.204 2565.22 150.515 2565.22 154.729V332.331L2423.13 152.019C2421.03 149.314 2418.62 147.507 2415.31 147.507H2412.9C2408.69 147.507 2405.07 151.12 2405.07 155.334V352.8V352.8ZM205.561 135.061C155.805 125.998 116.464 135.485 100.785 162.639C89.0859 182.902 92.4258 209.773 108.891 238.493C109.564 239.668 110.676 240.527 111.983 240.881C113.29 241.236 114.684 241.056 115.858 240.383C117.033 239.71 117.892 238.597 118.246 237.29C118.601 235.984 118.421 234.59 117.748 233.415C102.914 207.546 100.023 184.358 109.623 167.741C122.645 145.183 157.733 136.721 203.729 145.1C204.393 145.231 205.077 145.23 205.74 145.094C206.403 144.959 207.033 144.694 207.593 144.313C208.152 143.932 208.63 143.444 208.999 142.876C209.368 142.309 209.621 141.674 209.742 141.008C209.863 140.342 209.851 139.659 209.705 138.997C209.559 138.336 209.284 137.711 208.894 137.158C208.505 136.604 208.009 136.134 207.436 135.774C206.862 135.414 206.223 135.171 205.556 135.061H205.561ZM134.765 273.401C154.882 295.51 181.02 316.247 210.829 333.459C283.002 375.129 359.838 386.267 397.704 360.446C398.811 359.68 399.57 358.506 399.816 357.182C400.062 355.858 399.774 354.491 399.016 353.378C398.257 352.265 397.09 351.497 395.767 351.242C394.445 350.986 393.075 351.264 391.957 352.014C358.065 375.124 285.077 364.543 215.932 324.621C187.011 307.922 161.703 287.844 142.313 266.535C141.866 266.027 141.322 265.613 140.713 265.317C140.104 265.021 139.442 264.85 138.766 264.812C138.09 264.774 137.414 264.872 136.776 265.098C136.138 265.325 135.551 265.676 135.05 266.132C134.549 266.587 134.144 267.138 133.858 267.752C133.572 268.365 133.411 269.03 133.385 269.706C133.358 270.383 133.467 271.058 133.703 271.692C133.94 272.326 134.301 272.907 134.765 273.401V273.401Z" fill="#47848F"/>
<path d="M385.629 267.194C418.207 228.708 429.584 189.997 413.94 162.897C402.426 142.956 378.085 132.429 345.741 132.009C345.071 132 344.406 132.123 343.784 132.371C343.161 132.619 342.593 132.987 342.113 133.455C341.633 133.922 341.25 134.48 340.985 135.095C340.72 135.711 340.579 136.373 340.57 137.043C340.562 137.713 340.685 138.378 340.933 139.001C341.181 139.623 341.549 140.191 342.017 140.671C342.484 141.151 343.042 141.535 343.657 141.799C344.273 142.064 344.935 142.205 345.605 142.214C374.696 142.59 395.668 151.662 405.102 168C418.095 190.51 407.953 225.031 377.841 260.602C377.393 261.112 377.051 261.705 376.835 262.348C376.619 262.991 376.534 263.671 376.584 264.347C376.633 265.023 376.818 265.683 377.125 266.288C377.433 266.892 377.858 267.429 378.376 267.867C378.894 268.305 379.493 268.636 380.14 268.839C380.787 269.043 381.468 269.116 382.144 269.053C382.819 268.99 383.475 268.794 384.074 268.475C384.672 268.155 385.201 267.72 385.629 267.194V267.194ZM301.904 136.76C272.445 143.073 241.093 155.412 210.986 172.795C136.474 215.812 87.8703 279.24 94.6232 325.236C94.7041 325.913 94.9199 326.567 95.2577 327.159C95.5955 327.751 96.0485 328.27 96.59 328.684C97.1314 329.098 97.7504 329.399 98.4103 329.57C99.0702 329.741 99.7577 329.778 100.432 329.679C101.107 329.58 101.754 329.346 102.337 328.993C102.92 328.639 103.426 328.172 103.825 327.62C104.224 327.067 104.509 326.44 104.662 325.776C104.815 325.112 104.833 324.423 104.716 323.752C98.7248 282.917 144.794 222.79 216.083 181.633C245.292 164.768 275.654 152.824 304.042 146.735C305.338 146.425 306.462 145.621 307.172 144.494C307.883 143.366 308.124 142.006 307.845 140.703C307.566 139.4 306.788 138.258 305.677 137.521C304.567 136.784 303.213 136.511 301.904 136.76Z" fill="#47848F"/>
<path d="M181.195 357.121C198.236 404.68 226.098 433.967 257.436 433.967C280.287 433.967 301.43 418.391 317.919 390.964C318.289 390.39 318.54 389.747 318.657 389.074C318.773 388.401 318.754 387.711 318.599 387.045C318.444 386.38 318.158 385.752 317.756 385.2C317.354 384.647 316.845 384.181 316.26 383.829C315.674 383.477 315.024 383.246 314.348 383.149C313.671 383.053 312.983 383.094 312.322 383.269C311.662 383.444 311.043 383.75 310.503 384.168C309.963 384.587 309.513 385.109 309.179 385.705C294.359 410.354 276.156 423.767 257.436 423.767C231.41 423.767 206.552 397.644 190.805 353.679C190.589 353.035 190.247 352.44 189.799 351.93C189.351 351.42 188.805 351.004 188.194 350.707C187.583 350.411 186.919 350.239 186.241 350.202C185.562 350.166 184.884 350.265 184.244 350.494C183.605 350.723 183.018 351.078 182.517 351.537C182.016 351.996 181.612 352.551 181.329 353.168C181.045 353.785 180.888 354.453 180.866 355.132C180.844 355.81 180.957 356.487 181.2 357.121H181.195ZM336.791 347.815C345.609 319.641 350.341 287.131 350.341 253.254C350.341 168.733 320.761 95.8663 278.622 77.1554C277.389 76.629 275.999 76.609 274.751 77.0997C273.503 77.5904 272.499 78.5523 271.955 79.7776C271.411 81.0029 271.371 82.3931 271.844 83.6476C272.317 84.902 273.264 85.9201 274.481 86.4816C312.064 103.171 340.141 172.321 340.141 253.254C340.141 286.115 335.551 317.6 327.055 344.768C326.835 345.412 326.747 346.094 326.795 346.773C326.843 347.452 327.027 348.115 327.335 348.722C327.643 349.329 328.07 349.868 328.589 350.307C329.109 350.747 329.711 351.078 330.361 351.282C331.011 351.485 331.695 351.556 332.372 351.491C333.05 351.426 333.708 351.226 334.307 350.903C334.906 350.58 335.434 350.14 335.861 349.61C336.288 349.08 336.604 348.469 336.791 347.815V347.815ZM432.88 342.819C432.88 336.343 430.307 330.132 425.728 325.553C421.148 320.973 414.937 318.401 408.461 318.401C401.985 318.401 395.774 320.973 391.194 325.553C386.615 330.132 384.042 336.343 384.042 342.819C384.042 349.296 386.615 355.507 391.194 360.086C395.774 364.666 401.985 367.238 408.461 367.238C414.937 367.238 421.148 364.666 425.728 360.086C430.307 355.507 432.88 349.296 432.88 342.819ZM422.675 342.819C422.675 346.589 421.177 350.205 418.512 352.87C415.846 355.536 412.231 357.033 408.461 357.033C404.691 357.033 401.076 355.536 398.41 352.87C395.745 350.205 394.247 346.589 394.247 342.819C394.247 339.05 395.745 335.434 398.41 332.769C401.076 330.103 404.691 328.606 408.461 328.606C412.231 328.606 415.846 330.103 418.512 332.769C421.177 335.434 422.675 339.05 422.675 342.819ZM106.059 367.238C112.535 367.238 118.746 364.666 123.325 360.086C127.905 355.507 130.478 349.296 130.478 342.819C130.478 336.343 127.905 330.132 123.325 325.553C118.746 320.973 112.535 318.401 106.059 318.401C99.5823 318.401 93.3712 320.973 88.7918 325.553C84.2124 330.132 81.6396 336.343 81.6396 342.819C81.6396 349.296 84.2124 355.507 88.7918 360.086C93.3712 364.666 99.5823 367.238 106.059 367.238V367.238ZM106.059 357.033C102.288 357.033 98.6722 355.536 96.0061 352.869C93.3401 350.203 91.8423 346.587 91.8423 342.817C91.8423 339.047 93.3401 335.431 96.0061 332.765C98.6722 330.099 102.288 328.601 106.059 328.601C109.829 328.601 113.445 330.099 116.111 332.765C118.777 335.431 120.275 339.047 120.275 342.817C120.275 346.587 118.777 350.203 116.111 352.869C113.445 355.536 109.829 357.033 106.059 357.033Z" fill="#47848F"/>
<path d="M257.436 102.063C260.642 102.063 263.818 101.431 266.78 100.204C269.743 98.9766 272.435 97.1779 274.702 94.9104C276.97 92.6429 278.769 89.9509 279.996 86.9883C281.223 84.0256 281.854 80.8503 281.854 77.6436C281.854 74.4368 281.223 71.2615 279.996 68.2988C278.769 65.3362 276.97 62.6443 274.702 60.3768C272.435 58.1092 269.743 56.3106 266.78 55.0834C263.818 53.8562 260.642 53.2246 257.436 53.2246C250.959 53.2246 244.748 55.7973 240.169 60.3768C235.589 64.9562 233.017 71.1672 233.017 77.6436C233.017 84.1199 235.589 90.3309 240.169 94.9104C244.748 99.4898 250.959 102.063 257.436 102.063V102.063ZM257.436 91.8574C255.569 91.8574 253.721 91.4898 251.996 90.7755C250.272 90.0611 248.705 89.0142 247.385 87.6943C246.065 86.3744 245.018 84.8075 244.304 83.083C243.589 81.3585 243.222 79.5101 243.222 77.6436C243.222 75.777 243.589 73.9286 244.304 72.2041C245.018 70.4796 246.065 68.9127 247.385 67.5928C248.705 66.273 250.272 65.226 251.996 64.5117C253.721 63.7973 255.569 63.4297 257.436 63.4297C261.206 63.4297 264.822 64.9275 267.488 67.5935C270.154 70.2596 271.652 73.8756 271.652 77.646C271.652 81.4164 270.154 85.0324 267.488 87.6984C264.822 90.3645 261.206 91.8623 257.436 91.8623V91.8574ZM261.166 270.529C258.898 271.019 256.555 271.057 254.272 270.642C251.989 270.227 249.81 269.366 247.86 268.108C243.921 265.568 241.152 261.568 240.163 256.987C239.173 252.406 240.044 247.619 242.584 243.68C245.124 239.741 249.124 236.973 253.705 235.983C258.255 235.074 262.979 235.99 266.859 238.534C270.739 241.078 273.463 245.045 274.443 249.58C275.422 254.115 274.579 258.854 272.095 262.772C269.611 266.691 265.685 269.475 261.166 270.524V270.529Z" fill="#47848F"/>
</g>
</svg>
