<svg width="334" height="334" viewBox="0 0 334 334" fill="none" xmlns="http://www.w3.org/2000/svg">
<path d="M186.7 9.29991C99.7001 -1.90009 20.1001 59.5999 9.00006 146.6C-2.09994 233.6 59.3001 313.2 146.3 324.3C233.3 335.5 312.9 274 324 187C324 186.9 324 186.8 324 186.8C335.1 99.7999 273.6 20.3999 186.7 9.29991Z" fill="white"/>
<path d="M261.801 83.6996C260.901 84.0996 260.401 85.1996 260.801 86.0996C260.801 86.1996 260.901 86.1996 260.901 86.2996C261.901 88.2996 261.701 90.7996 260.201 92.4996C259.501 93.1996 259.401 94.3996 260.101 95.0996C260.101 95.0996 260.101 95.0996 260.201 95.1996C260.601 95.2996 261.101 95.2996 261.501 95.1996C262.001 95.1996 262.601 94.8996 262.901 94.4996C265.401 91.5996 265.901 87.4996 264.101 84.0996C263.601 83.3996 262.601 83.1996 261.801 83.6996Z" fill="#FF6C37"/>
<path d="M187.7 1.39984C96.5002 -10.4002 13.1002 54.0999 1.40022 145.3C-10.2998 236.5 54.1002 320 145.3 331.7C236.5 343.4 319.9 279 331.7 187.8C343.4 96.5999 279 13.0998 187.7 1.39984C187.8 1.39984 187.8 1.39984 187.7 1.39984ZM222 105.2C218.9 105.3 216 106.5 213.8 108.7L152 170.5L138.8 157.3C199.6 96.5998 210.7 95.9998 222 105.2ZM154.5 172.7L216.1 111.5C219.5 108.2 224.9 108.2 228.3 111.5C230 113.2 230.9 115.5 230.8 117.8C230.7 120.2 229.7 122.4 227.9 124L162.8 181.4L154.5 172.7ZM159.1 182L143.8 185.9C143.5 186.1 143.2 186.1 142.9 185.9C142.7 185.6 142.7 185.2 142.9 184.9L152.2 175.6L159.1 182ZM120.1 175.6L136.4 159.3L148.7 171.9L120.8 177.9C120.2 178 119.6 177.6 119.5 177C119.4 176.6 119.5 176.3 119.8 176L120.1 175.6ZM69.6002 260.3C69.2002 260.2 68.8002 259.9 68.7002 259.6C68.6002 259.2 68.6002 258.8 68.7002 258.5L81.8002 245.3L98.8002 262.2L69.6002 260.3ZM103.2 242.8C101.9 243.5 101.2 244.9 101.5 246.3L104.3 258.3C104.5 259.1 104.1 259.9 103.5 260.3C102.9 260.8 102 260.8 101.5 260.3L84.5002 242.8L136.7 190.5L162 185.1L174.1 197.2C152.5 215.2 128.7 230.5 103.3 242.6V242.8H103.2V242.8ZM176.6 195.2L165 183.6L230.1 126.3C230.7 125.8 231.3 125.2 231.8 124.5C229.7 143.1 203.5 169.5 176.6 195.2ZM227.4 105.5C217.7 95.3998 218.1 79.3998 228.2 69.6998C237.4 60.8998 251.6 60.2999 261.5 68.2999L239.1 90.5998C238.5 91.2998 238.5 92.2998 239.1 92.9998L256.5 110.3C246.7 115.1 234.9 113.1 227.3 105.3L227.4 105.5ZM263.1 105.5C261.9 106.6 260.7 107.7 259.3 108.6L242.6 91.8998L263.9 70.5998C273.1 80.4998 272.8 95.8998 263.1 105.5Z" fill="#FF6C37"/>
</svg>
