<svg width="324" height="405" viewBox="0 0 324 405" fill="none" xmlns="http://www.w3.org/2000/svg">
<ellipse cx="162" cy="59" rx="162" ry="59" fill="#4474CA"/>
<path d="M320 116C173.6 183.2 47.6667 144 3 116V165C15.3333 184.667 66.6 222 173 214C279.4 206 315.333 178 320 165V116Z" fill="#4474CA"/>
<path d="M320 208C173.6 275.2 47.6667 236 3 208V257C15.3333 276.667 66.6 314 173 306C279.4 298 315.333 270 320 257V208Z" fill="#4474CA"/>
<path d="M320 305C173.6 372.2 47.6667 333 3 305V354C15.3333 373.667 66.6 411 173 403C279.4 395 315.333 367 320 354V305Z" fill="#4474CA"/>
</svg>
